<svg xmlns="http://www.w3.org/2000/svg" xmlns:xlink="http://www.w3.org/1999/xlink" width="1400" height="1400" viewBox="0 0 1400 1400">
  <defs>
    <clipPath id="clip-e-blackB">
      <rect width="1400" height="1400"/>
    </clipPath>
  </defs>
  <g id="e-blackB" clip-path="url(#clip-e-blackB)">
    <path id="Path_22" data-name="Path 22" d="M1053.3,763.936s66.2,8.275,176.132-119.826c41.57-48.464,98.107-125.086,147.024-216.435,0,0,166.99-337.9,472.5-224.331,150.015,55.71,214.061,207.51,172.072,333.412-9.2,45.592-59.623,117.166-131.041,153.172-67.77,34.02-154.721,35.462-231.213-20.2-85.11-61.917-80.9-188.48-27.565-240.431,45.134-43.984,141.953-36.076,141.953-36.076s-107.637,2.494-134.517,78.146S1660.479,657.9,1776.492,657.9s181.019-75.191,193.56-134.234-22.459-155.76-87.828-208.752-144.035-62.13-208.246-49.434c-21.464,4.185-90.831,27.66-154.708,101.657S1421.161,536.5,1379.256,594.653c-90.1,124.85-168.952,191.187-226.873,219.025" transform="translate(-1053.3 192.725)" fill="#d2572b"/>
    <path id="Path_23" data-name="Path 23" d="M2385.81,239.619s-66.2-8.275-176.128,119.908c-41.585,48.464-98.111,125.085-146.988,216.447,0,0-152.948,340.433-435.376,230.75C1478.211,748.8,1385.451,583.7,1439.58,446.68c34.854-88.182,118.321-124.495,195.371-130.605,42.552-3.393,83.275,2.364,112.6,13.783,82.377,31.916,95.855,126.055,95.855,126.055s-8.45-85.759-129.472-105.9S1491.259,410.379,1478.7,469.4s12.874,166.3,78.209,219.213,151.3,59.789,215.488,47.094c21.431-4.208,91.787-29.292,153.94-103.467,39.388-47,91.632-165.216,133.575-223.291,90.1-124.861,131.489-169.874,216.315-199.319" transform="translate(-985.81 198.118)" fill="#d2572b"/>
  </g>
</svg>
