<svg xmlns="http://www.w3.org/2000/svg" xmlns:xlink="http://www.w3.org/1999/xlink" width="140" height="140" viewBox="0 0 140 140">
  <defs>
    <clipPath id="clip-e-black_1">
      <rect width="140" height="140"/>
    </clipPath>
  </defs>
  <g id="e-black_1" data-name="e-black – 1" clip-path="url(#clip-e-black_1)">
    <path id="Path_20" data-name="Path 20" d="M1053.3,238.4s6.62.827,17.613-11.983a125.346,125.346,0,0,0,14.7-21.644s16.7-33.79,47.25-22.433c15,5.571,21.406,20.751,17.207,33.341-.92,4.559-5.962,11.717-13.1,15.317a21.882,21.882,0,0,1-23.121-2.02c-8.511-6.192-8.09-18.848-2.757-24.043,4.513-4.4,14.2-3.608,14.2-3.608s-10.764.249-13.452,7.815a14.175,14.175,0,0,0,13.784,18.654c11.6,0,18.1-7.519,19.356-13.423s-2.246-15.576-8.783-20.875a25.115,25.115,0,0,0-20.825-4.943c-2.146.418-9.083,2.766-15.471,10.166s-9.811,16.935-14,22.751c-9.01,12.485-16.9,19.119-22.687,21.9" transform="translate(-1053.3 -143.03)" fill="#ff530d"/>
    <path id="Path_21" data-name="Path 21" d="M1520.181,212.629s-6.62-.827-17.613,11.991a125.02,125.02,0,0,0-14.7,21.645s-15.295,34.043-43.538,23.075c-14.911-5.792-24.187-22.3-18.774-36,3.485-8.818,11.832-12.449,19.537-13.061a26.465,26.465,0,0,1,11.26,1.378c8.238,3.192,9.586,12.606,9.586,12.606s-.845-8.576-12.947-10.59-22.268,6.037-23.523,11.939,1.287,16.631,7.821,21.921,15.13,5.979,21.549,4.709c2.143-.421,9.179-2.929,15.394-10.347,3.939-4.7,9.163-16.522,13.358-22.329,9.01-12.486,13.149-16.987,21.631-19.932" transform="translate(-1380.181 -169.149)" fill="#ff530d"/>
  </g>
</svg>
