<svg xmlns="http://www.w3.org/2000/svg" xmlns:xlink="http://www.w3.org/1999/xlink" width="38" height="38" viewBox="0 0 38 38">
  <defs>
    <clipPath id="clip-e-logo">
      <rect width="38" height="38"/>
    </clipPath>
  </defs>
  <g id="e-logo" clip-path="url(#clip-e-logo)">
    <path id="Path_25" data-name="Path 25" d="M1053.3,195.858s1.8.225,4.781-3.252a34.026,34.026,0,0,0,3.99-5.875s4.533-9.172,12.825-6.089a7.3,7.3,0,0,1,4.671,9.05,7.046,7.046,0,0,1-3.557,4.158,5.94,5.94,0,0,1-6.276-.548,4.562,4.562,0,0,1-.748-6.526c1.225-1.194,3.853-.979,3.853-.979s-2.922.068-3.651,2.121a3.848,3.848,0,0,0,3.741,5.063,5.12,5.12,0,0,0,5.254-3.643,6.6,6.6,0,0,0-2.384-5.666,6.817,6.817,0,0,0-5.652-1.342,8.268,8.268,0,0,0-4.2,2.759c-1.734,2.008-2.663,4.6-3.8,6.175-2.446,3.389-4.586,5.189-6.158,5.945" transform="translate(-1053.3 -170.03)" fill="#d2572b"/>
    <path id="Path_24" data-name="Path 24" d="M1450.106,210.444s-1.8-.225-4.781,3.255a33.93,33.93,0,0,0-3.99,5.875s-4.151,9.24-11.817,6.263c-4.047-1.572-6.565-6.053-5.1-9.773a5.912,5.912,0,0,1,5.3-3.545,7.184,7.184,0,0,1,3.056.374,4.582,4.582,0,0,1,2.6,3.422s-.229-2.328-3.514-2.874-6.044,1.639-6.385,3.241a6.858,6.858,0,0,0,2.123,5.95,7.2,7.2,0,0,0,5.849,1.278,8.254,8.254,0,0,0,4.178-2.808c1.069-1.276,2.487-4.484,3.626-6.061,2.445-3.389,3.569-4.611,5.871-5.41" transform="translate(-1412.106 -198.701)" fill="#d2572b"/>
  </g>
</svg>
